
nColumns=19
nRows=59
DataType=double
version=3
OpenSimVersion=4.4-2022-10-11-798caa840
endheader
time	ground_force_calcn_r_vx	ground_force_calcn_r_vy	ground_force_calcn_r_vz	ground_force_calcn_r_px	ground_force_calcn_r_py	ground_force_calcn_r_pz	ground_force_calcn_r_mx	ground_force_calcn_r_my	ground_force_calcn_r_mz	ground_force_calcn_l_vx	ground_force_calcn_l_vy	ground_force_calcn_l_vz	ground_force_calcn_l_px	ground_force_calcn_l_py	ground_force_calcn_l_pz	ground_force_calcn_l_mx	ground_force_calcn_l_my	ground_force_calcn_l_mz
0	-56.8732	322.327	-0.5276960000000001	0.09987550000000001	0	-0.123891	-0.0641082	0.363331	-0.000594826	0	0	0	0	0	0	0	0	0
0.01	-69.0243	355.164	-1.02118	0.10449	0	-0.124039	-0.0640916	0.329783	-0.000948207	0	0	0	0	0	0	0	0	0
0.02	-81.4815	390.709	-1.85782	0.109727	0	-0.12414	-0.06251370000000001	0.299757	-0.00142535	0	0	0	0	0	0	0	0	0
0.03	-93.6711	427.681	-3.0974	0.114698	0	-0.124156	-0.0597247	0.27269	-0.00197491	0	0	0	0	0	0	0	0	0
0.04	-105.005	464.55	-4.7879	0.119356	0	-0.12408	-0.0554616	0.245366	-0.00252887	0	0	0	0	0	0	0	0	0
0.05	-114.922	499.756	-6.95965	0.12368	0	-0.123909	-0.0491933	0.213925	-0.00297914	0	0	0	0	0	0	0	0	0
0.06	-122.953	531.896	-9.59853	0.127668	0	-0.123644	-0.0406277	0.175756	-0.00317168	0	0	0	0	0	0	0	0	0
0.07000000000000001	-128.774	559.835	-12.6254	0.131334	0	-0.123293	-0.0301615	0.131125	-0.00295713	0	0	0	0	0	0	0	0	0
0.08	-132.225	582.773	-15.8982	0.134705	0	-0.122867	-0.0188032	0.08287410000000001	-0.00226082	0	0	0	0	0	0	0	0	0
0.09	-133.294	600.2380000000001	-19.232	0.137811	0	-0.122383	-0.00775167	0.0349068	-0.00111844	0	0	0	0	0	0	0	0	0
0.1	-132.086	612.046	-22.4255	0.140689	0	-0.121855	0.00194203	-0.008998809999999999	0.000329719	0	0	0	0	0	0	0	0	0
0.11	-128.795	618.2569999999999	-25.2908	0.143377	0	-0.121298	0.00965682	-0.0463557	0.00189625	0	0	0	0	0	0	0	0	0
0.12	-123.686	619.123	-27.6824	0.145913	0	-0.120721	0.0153895	-0.0770335	0.00344435	0	0	0	0	0	0	0	0	0
0.13	-117.07	615.042	-29.509	0.148341	0	-0.120127	0.0195824	-0.102879	0.00493601	0	0	0	0	0	0	0	0	0
0.14	-109.285	606.53	-30.7376	0.150707	0	-0.119517	0.0229033	-0.127113	0.0064418	0	0	0	0	0	0	0	0	0
0.15	-100.678	594.202	-31.3907	0.153058	0	-0.118887	0.0260403	-0.15369	0.00811918	0	0	0	0	0	0	0	0	0
0.16	-91.58320000000001	578.761	-31.5355	0.155442	0	-0.118231	0.0295209	-0.186558	0.0101651	0	0	0	0	0	0	0	0	0
0.17	-82.30759999999999	560.976	-31.27	0.157908	0	-0.117541	0.0336207	-0.229145	0.0127731	0	0	0	0	0	0	0	0	0
0.18	-73.1181	541.6559999999999	-30.7067	0.160501	0	-0.116812	0.0383275	-0.283929	0.016096	0	0	0	0	0	0	0	0	0
0.19	-64.2329	521.617	-29.9553	0.163266	0	-0.116044	0.0433697	-0.352193	0.0202257	0	0	0	0	0	0	0	0	0
0.2	-55.8194	501.638	-29.1103	0.166241	0	-0.11524	0.0483132	-0.434182	0.0251958	0	0	0	0	0	0	0	0	0
0.21	-47.9946	482.431	-28.2427	0.169453	0	-0.114411	0.0526702	-0.529429	0.0309941	0	0	0	0	0	0	0	0	0
0.22	-40.8263	464.613	-27.3992	0.172915	0	-0.113579	0.0559732	-0.636987	0.0375645	0	0	0	0	0	0	0	0	0
0.23	-34.3351	448.695	-26.6067	0.176627	0	-0.112767	0.0578421	-0.755887	0.0448226	0	0	0	0	0	0	0	0	0
0.24	-28.4983	435.079	-25.8802	0.180565	0	-0.112008	0.0579928	-0.885367	0.052665	0	0	0	0	0	0	0	0	0
0.25	-23.2576	424.06	-25.2309	0.184687	0	-0.111332	0.0562044	-1.02478	0.0609731	0	0	0	0	0	0	0	0	0
0.26	-18.5292	415.824	-24.6712	0.188938	0	-0.110768	0.0522815	-1.17328	0.0696116	0	0	0	0	0	0	0	0	0
0.27	-14.2139	410.454	-24.2141	0.193251	0	-0.110337	0.0460346	-1.32934	0.0784224	0	0	0	0	0	0	0	0	0
0.28	-10.2057	407.946	-23.8723	0.197558	0	-0.110052	0.0372907	-1.4906	0.0872276	0	0	0	0	0	0	0	0	0
0.29	-6.39941	408.219	-23.6551	0.201807	0	-0.109919	0.0259261	-1.65383	0.09583469999999999	0	0	0	0	0	0	0	0	0
0.3	-2.69679	411.136	-23.5658	0.205956	0	-0.109931	0.0119059	-1.8151	0.104039	0	0	0	0	0	0	0	0	0
0.31	0.991882	416.511	-23.6004	0.209984	0	-0.110077	-0.00469144	-1.97003	0.111626	0	0	0	0	0	0	0	0	0
0.32	4.7476	424.123	-23.7499	0.213884	0	-0.110342	-0.0236645	-2.11405	0.118382	0	0	0	0	0	0	0	0	0
0.33	8.6419	433.725	-24.002	0.217662	0	-0.110703	-0.0446836	-2.24261	0.124104	0	0	0	0	0	0	0	0	0
0.34	12.737	445.047	-24.3448	0.221336	0	-0.11114	-0.0672869	-2.35109	0.128608	0	0	0	0	0	0	0	0	0
0.35	17.0871	457.8	-24.7678	0.224921	0	-0.111634	-0.0908728	-2.43468	0.131721	0	0	0	0	0	0	0	0	0
0.36	21.7378	471.671	-25.2603	0.228435	0	-0.112165	-0.114686	-2.48849	0.133271	0	0	0	0	0	0	0	0	0
0.37	26.7251	486.323	-25.8084	0.23189	0	-0.112718	-0.137818	-2.50791	0.133091	0	0	0	0	0	0	0	0	0
0.38	32.0739	501.382	-26.392	0.235292	0	-0.113281	-0.159234	-2.48916	0.131026	0	0	0	0	0	0	0	0	0
0.39	37.7954	516.436	-26.9826	0.238644	0	-0.113845	-0.177823	-2.42977	0.12695	0	0	0	0	0	0	0	0	0
0.4	43.8849	531.02	-27.5425	0.241942	0	-0.114403	-0.192478	-2.32903	0.1208	0	0	0	0	0	0	0	0	0
0.41	50.3188	544.61	-28.0257	0.245179	0	-0.114953	-0.202196	-2.18841	0.112616	0	0	0	0	0	0	0	0	0
0.42	57.0506	556.626	-28.379	0.248348	0	-0.11549	-0.206198	-2.01181	0.10257	0	0	0	0	0	0	0	0	0
0.43	64.00620000000001	566.4349999999999	-28.5456	0.251441	0	-0.116011	-0.204037	-1.80566	0.09099690000000001	0	0	0	0	0	0	0	0	0
0.44	71.0771	573.381	-28.4698	0.254453	0	-0.116517	-0.195685	-1.57859	0.0783812	0	0	0	0	0	0	0	0	0
0.45	78.11190000000001	576.809	-28.1008	0.257376	0	-0.117008	-0.181573	-1.34081	0.065321	0	0	0	0	0	0	0	0	0
0.46	84.916	576.093	-27.3969	0.260213	0	-0.117484	-0.162623	-1.10328	0.0524681	-0.391416	27.231	-5.36878	0.708572	0	-0.195595	-0.00166329	0.115716	-0.0228142
0.47	91.2561	570.664	-26.3273	0.262963	0	-0.117946	-0.140238	-0.876969	0.0404584	-3.05588	47.4965	-5.65515	0.744563	0	-0.215421	-0.0145642	0.226366	-0.0269522
0.48	96.86499999999999	560.049	-24.8751	0.265635	0	-0.118397	-0.116209	-0.67189	0.0298426	-6.72552	72.6434	-5.75695	0.762962	0	-0.224911	-0.0265536	0.286809	-0.0227295
0.49	101.45	543.904	-23.044	0.268235	0	-0.118839	-0.0925197	-0.496025	0.0210154	-11.5527	102.857	-5.58782	0.774623	0	-0.230396	-0.0370724	0.330067	-0.0179312
0.5	104.711	522.058	-20.8635	0.270778	0	-0.119273	-0.07102749999999999	-0.354123	0.0141522	-17.6673	138.021	-5.04497	0.78306	0	-0.233965	-0.0470086	0.367243	-0.0134235
0.51	106.362	494.562	-18.3918	0.273278	0	-0.119698	-0.0531553	-0.247161	0.00919143	-25.1498	177.619	-4.01191	0.789784	0	-0.236501	-0.0569899	0.402487	-0.00909107
0.52	106.163	461.725	-15.7132	0.275753	0	-0.120115	-0.0396786	-0.172571	0.00587285	-33.9214	220.809	-2.37477	0.795554	0	-0.238437	-0.0671312	0.436986	-0.00469973
0.53	103.947	424.149	-12.9328	0.278226	0	-0.120517	-0.0306783	-0.125181	0.00381692	-43.6651	266.65	-0.0493963	0.80076	0	-0.240006	-0.0768607	0.469366	-8.69489e-05
0.54	99.6645	382.727	-10.1695	0.280721	0	-0.120904	-0.0256108	-0.0983493	0.00261327	-53.9514	314.111	2.99594	0.805601	0	-0.241333	-0.08517959999999999	0.495926	0.00473006
0.55	93.4144	338.615	-7.54638	0.283271	0	-0.121271	-0.0235364	-0.08531660000000001	0.00190136	-64.3309	361.97	6.727	0.810186	0	-0.242486	-0.0909302	0.511637	0.00950846
0.5600000000000001	85.4449	293.174	-5.17566	0.285917	0	-0.121612	-0.0233101	-0.07998039999999999	0.00141196	-74.3334	408.816	11.0397	0.814565	0	-0.243501	-0.09292400000000001	0.51106	0.0138007
0.57	76.1438	247.862	-3.14434	0.288715	0	-0.121925	-0.023755	-0.0773269	0.0009809599999999999	-83.4684	453.136	15.7637	0.81876	0	-0.244402	-0.0902492	0.489948	0.0170444
0.58	66.00620000000001	204.1	-1.49975	0.29175	0	-0.122204	-0.0239617	-0.0740928	0.000544443	-91.2638	493.452	20.6945	0.822779	0	-0.245201	-0.0826369	0.446807	0.0187383
